<?xml version="1.0" encoding="UTF-8"?>
<svg width="98px" height="95px" viewBox="0 0 98 95" version="1.1" xmlns="http://www.w3.org/2000/svg" xmlns:xlink="http://www.w3.org/1999/xlink">
    <!-- Generator: sketchtool 41 (35326) - http://www.bohemiancoding.com/sketch -->
    <title>BCB8EDD9-2D0E-47A6-9308-3CCD42D228A8</title>
    <desc>Created with sketchtool.</desc>
    <defs>
        <ellipse id="path-1" cx="53.2905501" cy="42.8017233" rx="42.6324401" ry="42.8017233"></ellipse>
        <mask id="mask-2" maskContentUnits="userSpaceOnUse" maskUnits="objectBoundingBox" x="0" y="0" width="85.2648802" height="85.6034465" fill="white">
            <use xlink:href="#path-1"></use>
        </mask>
    </defs>
    <g id="Landing-Page" stroke="none" stroke-width="1" fill="none" fill-rule="evenodd">
        <g id="Voila-Landing-Page" transform="translate(-367.000000, -1409.000000)" stroke="#8A8B99">
            <g id="Slide-(alt)">
                <g id="Selling-Points" transform="translate(304.000000, 1405.000000)">
                    <g id="Group-5" transform="translate(0.000000, 3.000000)">
                        <g id="walkthrough-1" transform="translate(63.000000, 0.000000)">
                            <g id="search" transform="translate(0.333333, 0.223423)">
                                <g id="group" transform="translate(48.326926, 48.326361) scale(-1, 1) translate(-48.326926, -48.326361) translate(0.326926, 0.826361)">
                                    <use id="oval" mask="url(#mask-2)" stroke-width="8" xlink:href="#path-1"></use>
                                    <g id="Page-1" transform="translate(29.333333, 18.767568)" stroke-linecap="round" stroke-width="4">
                                        <g id="Group-12">
                                            <polygon id="Stroke-1" points="9.25 40.3 16.959875 17.05155 40.0833333 9.3 32.3734583 32.5469"></polygon>
                                            <path d="M27.75,24.8 C27.75,26.511975 26.3694375,27.9 24.6666667,27.9 C22.9638958,27.9 21.5833333,26.511975 21.5833333,24.8 C21.5833333,23.088025 22.9638958,21.7 24.6666667,21.7 C26.3694375,21.7 27.75,23.088025 27.75,24.8 L27.75,24.8 Z" id="Stroke-2"></path>
                                            <path d="M24,0 L24,6.2" id="Stroke-4"></path>
                                            <path d="M24,43.4 L24,49.6" id="Stroke-6"></path>
                                            <path d="M0,24.1297297 L6.16666667,24.1297297" id="Stroke-8"></path>
                                            <path d="M43.1666667,24.1297297 L49.3333333,24.1297297" id="Stroke-10"></path>
                                        </g>
                                    </g>
                                    <path d="M22.382031,73.735696 L1.44216736,92.8475244" id="line" stroke-width="4" stroke-linecap="round"></path>
                                </g>
                            </g>
                        </g>
                    </g>
                </g>
            </g>
        </g>
    </g>
</svg>