<?xml version="1.0" encoding="UTF-8"?>
<svg width="122px" height="102px" viewBox="0 0 122 102" version="1.1" xmlns="http://www.w3.org/2000/svg" xmlns:xlink="http://www.w3.org/1999/xlink">
    <!-- Generator: sketchtool 41 (35326) - http://www.bohemiancoding.com/sketch -->
    <title>3865D746-2A08-4DD6-B1E9-CA3ADE95A3A6</title>
    <desc>Created with sketchtool.</desc>
    <defs></defs>
    <g id="Landing-Page" stroke="none" stroke-width="1" fill="none" fill-rule="evenodd">
        <g id="Voila-Landing-Page" transform="translate(-758.000000, -1407.000000)" stroke="#8A8B99">
            <g id="Slide-(alt)">
                <g id="Selling-Points" transform="translate(304.000000, 1405.000000)">
                    <g id="Group-4" transform="translate(354.000000, 3.000000)">
                        <g id="walkthrough-2" transform="translate(102.000000, 0.000000)">
                            <g id="Page-1" transform="translate(0.000000, 0.245045)">
                                <path d="M47.004329,19.381045 C47.004329,16.282595 40.8398268,13.184145 25.4270303,13.184145 L0.770562771,13.184145 L0.770562771,81.381045 L31.5468398,81.381045 C40.8398268,81.381045 47.004329,84.482595 47.004329,87.309795 L47.004329,19.381045 L47.004329,19.381045 Z" id="Stroke-1" stroke-width="3.6"></path>
                                <path d="M68.0701281,81.381045 L62.4619723,81.381045 C53.1689853,81.381045 47.0044831,84.482595 47.0044831,87.309795" id="Stroke-3" stroke-width="3.6"></path>
                                <polyline id="Stroke-5" stroke-width="3.6" points="80.9077039 13.184145 93.2382494 13.184145 93.2382494 53.902645"></polyline>
                                <path d="M73.6449957,72.07655 L65.3614459,72.07655 C55.996026,72.07655 47.0050996,78.5168 47.0050996,87.5843" id="Stroke-7" stroke-width="3.6" stroke-linecap="round"></path>
                                <path d="M47.004329,19.375 C47.004329,13.7671 53.1688312,0.775 66.44871,0.775 L80.9075498,0.775 L80.9075498,66.3028" id="Stroke-9" stroke-width="3.6" stroke-linecap="round"></path>
                                <path d="M10,28.4216216 L38.2842712,28.4216216" id="Line" stroke-width="4" stroke-linecap="round"></path>
                                <path d="M10,40.4216216 L38.2842712,40.4216216" id="Line" stroke-width="4" stroke-linecap="round"></path>
                                <path d="M10,52.4216216 L38.2842712,52.4216216" id="Line" stroke-width="4" stroke-linecap="round"></path>
                                <path d="M10,64.4216216 L38.2842712,64.4216216" id="Line" stroke-width="4" stroke-linecap="round"></path>
                                <polygon id="Stroke-19" stroke-width="3.6" points="78.1472398 94.896115 65.3127463 81.987715 101.248712 45.844815 114.084746 58.753215"></polygon>
                                <path d="M74.4574771,90.86503 L67.8799532,97.47888 C66.4636589,98.90488 64.1642996,98.90488 62.7464641,97.47888 C61.3286286,96.05133 61.3286286,93.74028 62.7464641,92.31583 L69.3224468,85.70043" id="Stroke-21" stroke-width="3.6"></path>
                                <path d="M110.234244,54.88209 L116.653032,48.42634 C118.069326,47.00034 118.069326,44.68774 116.653032,43.26329 C115.235197,41.83729 112.935837,41.83729 111.518002,43.26329 L105.099214,49.71749" id="Stroke-23" stroke-width="3.6"></path>
                            </g>
                        </g>
                    </g>
                </g>
            </g>
        </g>
    </g>
</svg>