<?xml version="1.0" encoding="UTF-8"?>
<svg width="67px" height="98px" viewBox="0 0 67 98" version="1.1" xmlns="http://www.w3.org/2000/svg" xmlns:xlink="http://www.w3.org/1999/xlink">
    <!-- Generator: sketchtool 41 (35326) - http://www.bohemiancoding.com/sketch -->
    <title>136F4297-B5BA-484F-A8CA-FCFC1F083672</title>
    <desc>Created with sketchtool.</desc>
    <defs></defs>
    <g id="Landing-Page" stroke="none" stroke-width="1" fill="none" fill-rule="evenodd">
        <g id="Voila-Landing-Page" transform="translate(-1182.000000, -1405.000000)" fill="#8A8B99">
            <g id="Slide-(alt)">
                <g id="Selling-Points" transform="translate(304.000000, 1405.000000)">
                    <g id="Group-2" transform="translate(783.000000, 0.000000)">
                        <g id="walkthrough-3" transform="translate(95.000000, 0.000000)">
                            <path d="M63.41289,62.5937287 L53.95749,62.5937287 C51.01139,61.777177 48.96289,59.1250851 48.96289,56.0715218 L48.96289,10.3106023 C48.96289,6.55956782 52.01269,3.5060046 55.76289,3.5060046 L56.61289,3.5060046 C58.62909,3.5060046 60.53649,4.42632644 61.84889,6.0288092 L62.03929,6.22614253 C62.92499,7.00867126 63.41289,8.07188966 63.41289,9.22016552 L63.41289,62.5937287 Z M63.41289,90.2510161 C63.41289,92.4642115 61.61259,94.2640276 59.40259,94.2640276 C57.19089,94.2640276 55.39059,92.4642115 55.39059,90.2510161 L55.39059,65.9960276 L63.41289,65.9960276 L63.41289,90.2510161 Z M64.39209,3.77138391 C62.43539,1.43910805 59.60829,0.103705747 56.61289,0.103705747 L55.76289,0.103705747 C50.13759,0.103705747 45.56289,4.68149885 45.56289,10.3106023 L45.56289,56.0715218 C45.56289,60.285269 48.14689,64.0022805 51.99059,65.5282115 L51.99059,90.2510161 C51.99059,94.3388782 55.31579,97.6663264 59.40259,97.6663264 C63.48769,97.6663264 66.81289,94.3388782 66.81289,90.2510161 L66.81289,9.22016552 C66.81289,7.16007356 65.93229,5.17993563 64.39209,3.77138391 L64.39209,3.77138391 Z" id="Fill-1"></path>
                            <path d="M29.31327,34.8503632 C28.54317,35.7774897 25.82997,38.6354207 20.86937,39.7071448 C20.88297,40.4216276 20.91357,90.2499954 20.91357,90.2499954 C20.91357,92.4631908 19.11327,94.264708 16.90157,94.264708 C14.68987,94.264708 12.89127,92.4631908 12.89127,90.2499954 C12.89127,90.2499954 12.84707,40.186869 12.84707,39.6884322 C7.90857,38.5911908 5.21747,35.7349609 4.47797,34.8333517 C4.04957,32.3292598 1.88887,18.4206621 5.26167,10.6021793 C6.39217,7.98411034 7.85417,6.69293793 9.75647,6.0550069 L9.75647,25.7696276 L13.15647,25.7696276 L13.15647,5.49532874 C13.90277,5.4562023 14.68987,5.4425931 15.53647,5.4425931 L18.43837,5.4425931 C19.01127,5.4425931 19.55017,5.44769655 20.06357,5.45790345 L20.06357,25.7696276 L23.46357,25.7696276 L23.46357,5.78452414 C25.58007,6.26254713 27.01147,7.41252414 28.19637,10.1734897 C31.56407,18.0157885 29.69747,32.2356966 29.31327,34.8503632 M18.43837,2.04029425 L15.53647,2.04029425 C11.19637,2.04029425 5.25317,2.04029425 2.14047,9.25316782 C-1.96503,18.7762023 1.07627,35.166777 1.20717,35.860846 L1.27517,36.2197885 L1.48427,36.5174897 C1.62877,36.7250299 4.19407,40.2566161 9.49127,42.2197425 L9.49127,90.2499954 C9.49127,94.3378575 12.81477,97.6670069 16.90157,97.6670069 C20.99007,97.6670069 24.31357,94.3378575 24.31357,90.2499954 L24.31357,42.2197425 C29.61077,40.2566161 32.17607,36.7250299 32.32057,36.5174897 L32.53987,36.202777 L32.60447,35.8200184 C32.72177,35.1089379 35.41457,18.3645241 31.32097,8.83128276 C28.40377,2.04029425 23.33607,2.04029425 18.43837,2.04029425" id="Fill-3"></path>
                        </g>
                    </g>
                </g>
            </g>
        </g>
    </g>
</svg>